<svg version="1.1" id="Layer_1" xmlns="http://www.w3.org/2000/svg" xmlns:xlink="http://www.w3.org/1999/xlink" x="0px" y="0px"
	 width="100%" viewBox="0 0 857 685" enable-background="new 0 0 857 685" xml:space="preserve">
<path fill="#000000" opacity="1.000000" stroke="none" 
	d="
M455.000000,686.000000 
	C303.333344,686.000000 152.166672,686.000000 1.000000,686.000000 
	C1.000000,457.666656 1.000000,229.333328 1.000000,1.000000 
	C286.666656,1.000000 572.333313,1.000000 858.000000,1.000000 
	C858.000000,229.333328 858.000000,457.666656 858.000000,686.000000 
	C723.833313,686.000000 589.666687,686.000000 455.000000,686.000000 
M582.496338,287.795502 
	C582.148071,283.143005 582.001038,278.465240 581.421326,273.841766 
	C572.428711,202.112244 515.008850,150.852936 442.701782,150.388596 
	C395.539154,150.085724 348.372864,150.376587 301.208710,150.235962 
	C297.602600,150.225220 296.394135,151.521729 295.491882,154.742264 
	C282.325653,201.737961 269.033051,248.698273 255.791641,295.672974 
	C255.416489,297.003876 255.273621,298.400208 254.892609,300.471985 
	C270.918671,300.471985 286.298462,300.471985 301.997223,300.471985 
	C296.979767,378.590973 292.003357,456.070557 287.026978,533.550110 
	C287.394043,533.629028 287.761108,533.707886 288.128174,533.786743 
	C327.845001,453.692749 367.561859,373.598724 407.606232,292.844177 
	C392.407135,292.844177 378.267548,292.844177 364.001831,292.844177 
	C364.001831,291.894714 363.855133,291.206177 364.022980,290.605530 
	C370.915436,265.938568 377.788605,241.265808 384.898193,216.661377 
	C385.242828,215.468628 387.689575,214.144470 389.169006,214.130783 
	C407.333221,213.962708 425.499817,213.977188 443.665344,214.050293 
	C456.400879,214.101547 468.506470,217.104675 479.623993,223.233841 
	C509.218323,239.549423 524.528015,273.797852 516.937500,306.042084 
	C509.073059,339.449799 480.833374,363.091553 446.423553,364.305634 
	C428.279663,364.945831 410.096954,364.598480 391.933411,364.470093 
	C388.481476,364.445709 386.639893,365.348999 385.229248,368.665192 
	C377.414368,387.036530 369.338287,405.296722 361.375366,423.605286 
	C360.809662,424.905975 360.434052,426.289368 359.783630,428.174591 
	C362.233368,428.174591 364.047455,428.174561 365.861542,428.174591 
	C381.694183,428.174591 397.527649,428.260620 413.358734,428.104645 
	C416.658630,428.072144 418.827240,429.064697 420.986755,431.610596 
	C449.661255,465.415710 478.481842,499.096954 507.162628,532.896790 
	C509.413574,535.549500 511.677032,536.678833 515.200439,536.660706 
	C542.865112,536.518250 570.530884,536.581604 598.196289,536.581482 
	C599.795654,536.581482 601.394958,536.581482 604.455261,536.581482 
	C569.638855,495.679810 535.714050,455.825684 501.742035,415.915985 
	C553.049561,388.539703 581.039673,347.010712 582.496338,287.795502 
z"/>
<path fill="#FDFDFD" opacity="1.000000" stroke="none" 
	d="
M582.525757,288.257996 
	C581.039673,347.010712 553.049561,388.539703 501.742035,415.915985 
	C535.714050,455.825684 569.638855,495.679810 604.455261,536.581482 
	C601.394958,536.581482 599.795654,536.581482 598.196289,536.581482 
	C570.530884,536.581604 542.865112,536.518250 515.200439,536.660706 
	C511.677032,536.678833 509.413574,535.549500 507.162628,532.896790 
	C478.481842,499.096954 449.661255,465.415710 420.986755,431.610596 
	C418.827240,429.064697 416.658630,428.072144 413.358734,428.104645 
	C397.527649,428.260620 381.694183,428.174591 365.861542,428.174591 
	C364.047455,428.174561 362.233368,428.174591 359.783630,428.174591 
	C360.434052,426.289368 360.809662,424.905975 361.375366,423.605286 
	C369.338287,405.296722 377.414368,387.036530 385.229248,368.665192 
	C386.639893,365.348999 388.481476,364.445709 391.933411,364.470093 
	C410.096954,364.598480 428.279663,364.945831 446.423553,364.305634 
	C480.833374,363.091553 509.073059,339.449799 516.937500,306.042084 
	C524.528015,273.797852 509.218323,239.549423 479.623993,223.233841 
	C468.506470,217.104675 456.400879,214.101547 443.665344,214.050293 
	C425.499817,213.977188 407.333221,213.962708 389.169006,214.130783 
	C387.689575,214.144470 385.242828,215.468628 384.898193,216.661377 
	C377.788605,241.265808 370.915436,265.938568 364.022980,290.605530 
	C363.855133,291.206177 364.001831,291.894714 364.001831,292.844177 
	C378.267548,292.844177 392.407135,292.844177 407.606232,292.844177 
	C367.561859,373.598724 327.845001,453.692749 288.128174,533.786743 
	C287.761108,533.707886 287.394043,533.629028 287.026978,533.550110 
	C292.003357,456.070557 296.979767,378.590973 301.997223,300.471985 
	C286.298462,300.471985 270.918671,300.471985 254.892609,300.471985 
	C255.273621,298.400208 255.416489,297.003876 255.791641,295.672974 
	C269.033051,248.698273 282.325653,201.737961 295.491882,154.742264 
	C296.394135,151.521729 297.602600,150.225220 301.208710,150.235962 
	C348.372864,150.376587 395.539154,150.085724 442.701782,150.388596 
	C515.008850,150.852936 572.428711,202.112244 581.421326,273.841766 
	C582.001038,278.465240 582.148071,283.143005 582.525757,288.257996 
z"/>
</svg>